<svg width="1056" height="288" viewBox="0 0 1056 288" fill="none" xmlns="http://www.w3.org/2000/svg">
<path d="M0 288V0H46.2728C54.6595 0 61.8976 4.21875 67.9871 12.6563C74.113 21 78.8351 32.6719 82.1533 47.6719C85.4715 62.5781 87.1307 79.9219 87.1307 99.7031C87.1307 119.578 85.4351 136.969 82.0439 151.875C78.6892 166.687 73.8942 178.172 67.6589 186.328C61.4236 194.484 54.0214 198.563 45.4523 198.563H16.9011V143.719H40.4203C44.5043 143.719 47.9137 141.891 50.6485 138.234C53.4197 134.578 55.5164 129.469 56.9385 122.906C58.3606 116.25 59.0716 108.516 59.0716 99.7031C59.0716 90.7969 58.3606 83.1094 56.9385 76.6406C55.5164 70.0781 53.4197 65.0156 50.6485 61.4531C47.8772 57.8906 44.4678 56.1094 40.4203 56.1094H27.0745V288H0Z" fill="black"/>
<path d="M100.476 288V0H127.551V231.469H174.152V288H100.476Z" fill="black"/>
<path d="M213.902 288H184.804L222.599 0H258.644L296.438 288H267.34L241.031 72.5625H240.156L213.902 288ZM210.019 174.656H270.841V227.531H210.019V174.656Z" fill="black"/>
<path d="M403.834 0V288H380.862L336.284 121.781H335.573V288H308.499V0H331.799L375.884 165.937H376.814V0H403.834Z" fill="black"/>
<path d="M417.193 56.5312V0H511.872V56.5312H477.906V288H451.214V56.5312H417.193Z" fill="black"/>
<path d="M525.095 0H558.623L587.065 178.313H588.378L616.82 0H650.349V288H623.985V111.094H623.055L596.145 286.172H579.299L552.388 110.109H551.458V288H525.095V0Z" fill="black"/>
<path d="M667.236 288V0H745.342V56.5312H694.31V115.594H741.349V172.266H694.31V231.469H745.342V288H667.236Z" fill="black"/>
<path d="M803.702 288H762.298V0H803.648C815.061 0 824.888 5.76563 833.129 17.2969C841.406 28.7344 847.787 45.2344 852.272 66.7969C856.757 88.2656 859 113.953 859 143.859C859 173.859 856.757 199.641 852.272 221.203C847.824 242.766 841.461 259.312 833.184 270.844C824.906 282.281 815.079 288 803.702 288ZM789.372 228.656H802.663C808.935 228.656 814.24 225.937 818.58 220.5C822.955 214.969 826.255 206.016 828.48 193.641C830.74 181.172 831.871 164.578 831.871 143.859C831.871 123.141 830.74 106.641 828.48 94.3594C826.219 81.9844 822.882 73.0781 818.47 67.6406C814.095 62.1094 808.698 59.3437 802.28 59.3437H789.372V228.656Z" fill="black"/>
<path d="M963 288C996.137 288 1023 261.137 1023 228C1023 194.863 996.137 168 963 168C929.863 168 903 194.863 903 228C903 261.137 929.863 288 963 288Z" fill="#FF0000"/>
</svg>
