<svg width="512" height="512" viewBox="0 0 512 512" fill="none" xmlns="http://www.w3.org/2000/svg">
<path d="M397.37 463.714C443.13 463.714 480.227 426.618 480.227 380.857C480.227 335.096 443.13 298 397.37 298C351.609 298 314.513 335.096 314.513 380.857C314.513 426.618 351.609 463.714 397.37 463.714Z" fill="black"/>
<path d="M16.5128 464.248V132.818H139.722C162.053 132.818 181.325 137.673 197.54 147.383C213.851 156.985 226.424 170.417 235.26 187.679C244.095 204.833 248.513 224.792 248.513 247.556C248.513 270.428 243.998 290.442 234.969 307.596C226.036 324.642 213.269 337.858 196.666 347.244C180.063 356.63 160.354 361.324 137.537 361.324H61.5146V298.209H124.139C135.013 298.209 144.091 296.106 151.373 291.898C158.752 287.69 164.334 281.811 168.121 274.258C171.908 266.598 173.801 257.698 173.801 247.556C173.801 237.307 171.908 228.46 168.121 221.016C164.334 213.464 158.752 207.638 151.373 203.538C143.994 199.439 134.916 197.389 124.139 197.389H88.6032V464.248H16.5128Z" fill="white"/>
</svg>
